<svg xmlns="http://www.w3.org/2000/svg" width="187.5" viewBox="0 0 187.5 187.5" height="187.5" version="1.0"><defs><clipPath id="a"><path d="M 37.039062 45 L 150.289062 45 L 150.289062 173.523438 L 37.039062 173.523438 Z M 37.039062 45"/></clipPath><clipPath id="b"><path d="M 63 13.773438 L 81 13.773438 L 81 36 L 63 36 Z M 63 13.773438"/></clipPath><clipPath id="c"><path d="M 84 13.773438 L 102 13.773438 L 102 36 L 84 36 Z M 84 13.773438"/></clipPath><clipPath id="d"><path d="M 104 13.773438 L 123 13.773438 L 123 36 L 104 36 Z M 104 13.773438"/></clipPath></defs><g clip-path="url(#a)"><path fill="#264DE4" d="M 93.613281 173.519531 L 47.40625 160.6875 L 37.109375 45.167969 L 150.257812 45.167969 L 139.953125 160.667969 L 93.617188 173.515625 Z M 93.613281 173.519531"/></g><path fill="#2965F1" d="M 131.128906 153.316406 L 139.9375 54.613281 L 93.6875 54.613281 L 93.6875 163.695312 L 131.128906 153.3125 Z M 131.128906 153.316406"/><path fill="#EBEBEB" d="M 60.71875 97.457031 L 61.988281 111.625 L 93.6875 111.625 L 93.6875 97.457031 Z M 60.71875 97.457031"/><path fill="#EBEBEB" d="M 58.167969 68.777344 L 59.453125 82.949219 L 93.6875 82.949219 L 93.6875 68.777344 Z M 58.167969 68.777344"/><path fill="#EBEBEB" d="M 93.6875 134.253906 L 93.625 134.269531 L 77.847656 130.007812 L 76.839844 118.707031 L 62.621094 118.707031 L 64.605469 140.957031 L 93.621094 149.011719 L 93.6875 148.996094 Z M 93.6875 134.253906"/><g clip-path="url(#b)"><path d="M 63.738281 13.773438 L 80.898438 13.773438 L 80.898438 20.949219 L 70.914062 20.949219 L 70.914062 28.125 L 80.898438 28.125 L 80.898438 35.300781 L 63.738281 35.300781 Z M 63.738281 13.773438"/></g><g clip-path="url(#c)"><path d="M 84.328125 13.773438 L 101.484375 13.773438 L 101.484375 20.011719 L 91.503906 20.011719 L 91.503906 21.261719 L 101.484375 21.261719 L 101.484375 35.613281 L 84.328125 35.613281 L 84.328125 29.0625 L 94.3125 29.0625 L 94.3125 27.8125 L 84.328125 27.8125 Z M 84.328125 13.773438"/></g><g clip-path="url(#d)"><path d="M 104.917969 13.773438 L 122.074219 13.773438 L 122.074219 20.011719 L 112.089844 20.011719 L 112.089844 21.261719 L 122.074219 21.261719 L 122.074219 35.613281 L 104.917969 35.613281 L 104.917969 29.0625 L 114.894531 29.0625 L 114.894531 27.8125 L 104.917969 27.8125 Z M 104.917969 13.773438"/></g><path fill="#FFF" d="M 126.566406 97.457031 L 129.121094 68.777344 L 93.636719 68.777344 L 93.636719 82.949219 L 113.597656 82.949219 L 112.308594 97.457031 L 93.636719 97.457031 L 93.636719 111.625 L 111.082031 111.625 L 109.4375 130 L 93.636719 134.265625 L 93.636719 149.003906 L 122.675781 140.957031 L 122.886719 138.558594 L 126.21875 101.261719 Z M 126.566406 97.457031"/></svg>