<svg xmlns="http://www.w3.org/2000/svg" width="187.5" viewBox="0 0 187.5 187.5" height="187.5" version="1.0"><defs><clipPath id="a"><path d="M 37.40625 45 L 149.90625 45 L 149.90625 173.289062 L 37.40625 173.289062 Z M 37.40625 45"/></clipPath><clipPath id="b"><path d="M 47 14.289062 L 69 14.289062 L 69 36 L 47 36 Z M 47 14.289062"/></clipPath><clipPath id="c"><path d="M 71 14.289062 L 92 14.289062 L 92 36 L 71 36 Z M 71 14.289062"/></clipPath><clipPath id="d"><path d="M 94 14.289062 L 119 14.289062 L 119 36 L 94 36 Z M 94 14.289062"/></clipPath><clipPath id="e"><path d="M 122 14.289062 L 140 14.289062 L 140 36 L 122 36 Z M 122 14.289062"/></clipPath></defs><g clip-path="url(#a)"><path fill="#E44D26" d="M 149.871094 45.535156 L 139.632812 160.496094 L 93.605469 173.28125 L 47.707031 160.511719 L 37.476562 45.535156 L 149.871094 45.53125 L 149.875 45.53125 Z M 149.871094 45.535156"/></g><path fill="#F16529" d="M 93.675781 163.507812 L 130.871094 153.175781 L 139.621094 54.9375 L 93.675781 54.9375 Z M 93.675781 163.507812"/><path fill="#EBEBEB" d="M 73.769531 83.136719 L 93.675781 83.136719 L 93.675781 69.035156 L 58.394531 69.035156 L 58.730469 72.820312 L 62.1875 111.679688 L 93.675781 111.679688 L 93.675781 97.582031 L 75.058594 97.582031 Z M 73.769531 83.136719"/><path fill="#EBEBEB" d="M 76.941406 118.730469 L 62.816406 118.730469 L 64.789062 140.875 L 93.609375 148.894531 L 93.675781 148.875 L 93.675781 134.203125 L 93.613281 134.222656 L 77.945312 129.976562 Z M 76.941406 118.730469"/><g clip-path="url(#b)"><path d="M 47.9375 14.289062 L 55.085938 14.289062 L 55.085938 21.367188 L 61.628906 21.367188 L 61.628906 14.289062 L 68.777344 14.289062 L 68.777344 35.730469 L 61.628906 35.730469 L 61.628906 28.550781 L 55.085938 28.550781 L 55.085938 35.730469 L 47.9375 35.730469 Z M 47.9375 14.289062"/></g><g clip-path="url(#c)"><path d="M 78.183594 21.398438 L 71.886719 21.398438 L 71.886719 14.289062 L 91.632812 14.289062 L 91.632812 21.398438 L 85.332031 21.398438 L 85.332031 35.730469 L 78.183594 35.730469 Z M 78.183594 21.398438"/></g><g clip-path="url(#d)"><path d="M 94.765625 14.289062 L 102.21875 14.289062 L 106.804688 21.820312 L 111.386719 14.289062 L 118.847656 14.289062 L 118.847656 35.730469 L 111.726562 35.730469 L 111.726562 25.101562 L 106.804688 32.726562 L 106.683594 32.726562 L 101.761719 25.101562 L 101.761719 35.730469 L 94.765625 35.730469 Z M 94.765625 14.289062"/></g><g clip-path="url(#e)"><path d="M 122.40625 14.289062 L 129.558594 14.289062 L 129.558594 28.640625 L 139.617188 28.640625 L 139.617188 35.730469 L 122.40625 35.730469 Z M 122.40625 14.289062"/></g><path fill="#FFF" d="M 93.628906 111.679688 L 110.957031 111.679688 L 109.320312 129.96875 L 93.628906 134.214844 L 93.628906 148.882812 L 122.472656 140.875 L 122.683594 138.492188 L 125.992188 101.367188 L 126.335938 97.582031 L 93.628906 97.582031 Z M 93.628906 111.679688"/><path fill="#FFF" d="M 93.628906 83.101562 L 93.628906 83.136719 L 127.613281 83.136719 L 127.898438 79.96875 L 128.539062 72.820312 L 128.875 69.035156 L 93.628906 69.035156 Z M 93.628906 83.101562"/></svg>