<svg xmlns="http://www.w3.org/2000/svg" width="187.5" viewBox="0 0 187.5 187.5" height="187.5" version="1.0"><defs><clipPath id="a"><path d="M 23.84375 23.84375 L 163.34375 23.84375 L 163.34375 163.34375 L 23.84375 163.34375 Z M 23.84375 23.84375"/></clipPath></defs><g clip-path="url(#a)"><path fill="#FFD600" d="M 23.84375 23.84375 L 163.34375 23.84375 L 163.34375 163.34375 L 23.84375 163.34375 Z M 23.84375 23.84375"/></g><path fill="#000001" d="M 115.054688 128.265625 C 117.734375 132.621094 120.648438 136.792969 126.824219 136.792969 C 132.007812 136.792969 134.726562 134.214844 134.726562 130.652344 C 134.726562 126.382812 131.914062 124.871094 126.210938 122.386719 L 123.082031 121.050781 C 114.058594 117.222656 108.054688 112.425781 108.054688 102.292969 C 108.054688 92.953125 115.207031 85.847656 126.375 85.847656 C 134.332031 85.847656 140.046875 88.601562 144.171875 95.820312 L 134.429688 102.046875 C 132.285156 98.21875 129.96875 96.710938 126.375 96.710938 C 122.710938 96.710938 120.390625 99.023438 120.390625 102.046875 C 120.390625 105.78125 122.714844 107.292969 128.082031 109.605469 L 131.210938 110.9375 C 141.847656 115.46875 147.84375 120.09375 147.84375 130.496094 C 147.84375 141.703125 138.992188 147.84375 127.113281 147.84375 C 115.492188 147.84375 108.894531 142.011719 105.21875 134.792969 Z M 70.160156 128.582031 C 72.121094 132.09375 75.097656 134.792969 79.386719 134.792969 C 83.484375 134.792969 85.84375 133.171875 85.84375 126.875 L 85.84375 85.84375 L 98.761719 85.84375 L 98.761719 128.859375 C 98.761719 141.90625 91.191406 147.84375 80.140625 147.84375 C 70.15625 147.84375 62.945312 141.078125 60.011719 134.792969 Z M 70.160156 128.582031"/></svg>